<svg xmlns="http://www.w3.org/2000/svg" viewBox="0 0 75 118" width="75" height="118">
	<style>
		tspan { white-space:pre }
		.shp0 { fill: #dd2727 } 
		.shp1 { fill: #920312 } 
	</style>
	<path id="path3743" class="shp0" d="M5.3 21.5C5.3 21.5 3.76 0 37.15 0C70.55 0 68.49 42.13 68.49 42.13L59.76 42.13C59.76 42.13 59.5 10.28 37.15 9.51C14.8 8.74 16.09 21.5 16.09 21.5L5.3 21.5Z" />
	<path id="path2865-1" class="shp0" d="M74.02 100.25L74.09 44.94L0.62 44.94L0.18 99.67C0.25 120 16.75 116.93 37.1 116.93C57.45 116.93 74.02 120.6 74.02 100.25L74.02 100.25Z" />
	<path id="path2860-7" class="shp1" d="M37.09 62.07C33.08 62.07 29.84 65.3 29.84 69.32C29.84 72.24 31.55 74.78 34.04 75.93L31.35 94.02L43.81 94.02L40.94 75.48C42.99 74.2 44.37 71.92 44.37 69.32C44.37 65.3 41.1 62.07 37.09 62.07L37.09 62.07Z" />
</svg>