<svg
        xmlns="http://www.w3.org/2000/svg"
        id="svg2"
        viewBox="0 0 225.52 116.94"
        version="1.1"
      >
        <g id="layer1" transform="translate(-303.88 -476.85)">
          <path
            id="path2858"
            d="m308.69 519.19s-1.5413-42.129 31.854-42.129 31.34 42.129 31.34 42.129h-8.7341s-0.25689-31.854-22.606-32.624c-22.349-0.77066-21.065 32.624-21.065 32.624h-10.789z"
            fill="#60df33"
          />
          <path
            id="path2865"
            d="m377.72 577.11 0.0707-55.306h-73.47l-0.44306 54.73c0.0707 20.328 16.569 17.261 36.921 17.261s36.921 3.666 36.921-16.686z"
            fill="#60df33"
          />
          <path
            id="path2860"
            d="m340.79 538.92c-4.0128 0-7.2476 3.2348-7.2476 7.2476 0 2.9243 1.7057 5.4595 4.196 6.6119l-2.6854 18.087h12.461l-2.8772-18.532c2.0532-1.2839 3.4331-3.5668 3.4331-6.1668 0-4.0128-3.2666-7.2476-7.2794-7.2476z"
            fill="#287f09"
          />
          <path
            id="path3743"
            d="m466.18 518.98s-1.5413-42.129 31.854-42.129 31.34 42.129 31.34 42.129h-8.7341s-0.25689-31.854-22.606-32.624c-22.349-0.77066-21.065 32.624-21.065 32.624h-10.789z"
            fill="#dd2727"
          />
          <path
            id="path2865-1"
            d="m482.9 577.1 0.0707-55.306h-73.47l-0.44306 54.73c0.0707 20.328 16.569 17.261 36.921 17.261s36.921 3.666 36.921-16.686z"
            fill="#dd2727"
          />
          <path
            id="path2860-7"
            d="m445.97 538.92c-4.0128 0-7.2476 3.2348-7.2476 7.2476 0 2.9243 1.7057 5.4595 4.196 6.6119l-2.6854 18.087h12.461l-2.8772-18.532c2.0532-1.2839 3.4331-3.5668 3.4331-6.1668 0-4.0128-3.2666-7.2476-7.2794-7.2476z"
            fill="#920312"
          />
        </g>
      </svg>