<svg version="1.1" viewBox="0 0 76.26506224066391 116.94" id="svg2" xmlns:xlink="http://www.w3.org/1999/xlink" xmlns="http://www.w3.org/2000/svg" style="max-height: 500px" width="76.26506224066391" height="116.94">
  <g transform="translate(-303.88 -476.85)" id="layer1">
    <path fill="#60df33" d="m308.69 519.19s-1.5413-42.129 31.854-42.129 31.34 42.129 31.34 42.129h-8.7341s-0.25689-31.854-22.606-32.624c-22.349-0.77066-21.065 32.624-21.065 32.624h-10.789z" id="path2858"/>
    <path fill="#60df33" d="m377.72 577.11 0.0707-55.306h-73.47l-0.44306 54.73c0.0707 20.328 16.569 17.261 36.921 17.261s36.921 3.666 36.921-16.686z" id="path2865"/>
    <path fill="#287f09" d="m340.79 538.92c-4.0128 0-7.2476 3.2348-7.2476 7.2476 0 2.9243 1.7057 5.4595 4.196 6.6119l-2.6854 18.087h12.461l-2.8772-18.532c2.0532-1.2839 3.4331-3.5668 3.4331-6.1668 0-4.0128-3.2666-7.2476-7.2794-7.2476z" id="path2860"/>
    <path fill="#dd2727" d="m466.18 518.98s-1.5413-42.129 31.854-42.129 31.34 42.129 31.34 42.129h-8.7341s-0.25689-31.854-22.606-32.624c-22.349-0.77066-21.065 32.624-21.065 32.624h-10.789z" id="path3743"/>
    <path fill="#dd2727" d="m482.9 577.1 0.0707-55.306h-73.47l-0.44306 54.73c0.0707 20.328 16.569 17.261 36.921 17.261s36.921 3.666 36.921-16.686z" id="path2865-1"/>
    <path fill="#920312" d="m445.97 538.92c-4.0128 0-7.2476 3.2348-7.2476 7.2476 0 2.9243 1.7057 5.4595 4.196 6.6119l-2.6854 18.087h12.461l-2.8772-18.532c2.0532-1.2839 3.4331-3.5668 3.4331-6.1668 0-4.0128-3.2666-7.2476-7.2794-7.2476z" id="path2860-7"/>
  </g>
  <metadata>
    
      
        image/svg+xml
        
        
        
          
            Openclipart
          
        
        Open and closed lock
        2013-11-07T10:50:32
        Set of 2 locks, one opened and one closed.
        https://openclipart.org/detail/188421/open-and-closed-lock-by-iyo-188421
        
          
            Iyo
          
        
        
          
            closed
            lock
            locks
            open
            pic
            pictogram
            sign
          
        
      
      
        
        
        
      
    
  </metadata>
</svg>